<?xml version="1.0" encoding="utf-8"?>
<!-- Generator: Adobe Illustrator 24.1.0, SVG Export Plug-In . SVG Version: 6.00 Build 0)  -->
<svg version="1.1" id="Layer_1" xmlns="http://www.w3.org/2000/svg" xmlns:xlink="http://www.w3.org/1999/xlink" x="0px" y="0px"
	 viewBox="0 0 1080 1920" style="enable-background:new 0 0 1080 1920;" xml:space="preserve">
<style type="text/css">
	.st0{fill:none;stroke:#000000;stroke-width:3;stroke-linecap:round;stroke-linejoin:round;stroke-miterlimit:10;}
	.st1{fill:none;stroke:#000000;stroke-width:2;stroke-linecap:round;stroke-linejoin:round;}
	.st2{fill:none;stroke:#000000;stroke-width:2;stroke-linecap:round;stroke-linejoin:round;stroke-dasharray:7.0163,5.0117;}
	
		.st3{fill:none;stroke:#000000;stroke-width:2;stroke-linecap:round;stroke-linejoin:round;stroke-dasharray:20.0467,5.0117,7.0163,5.0117;}
	.st4{fill:none;stroke:#000000;stroke-width:2;stroke-linecap:round;stroke-linejoin:round;stroke-dasharray:7.0713,5.0509;}
	
		.st5{fill:none;stroke:#000000;stroke-width:2;stroke-linecap:round;stroke-linejoin:round;stroke-dasharray:20.2037,5.0509,7.0713,5.0509;}
	.st6{fill:none;stroke:#000000;stroke-linecap:round;stroke-linejoin:round;stroke-miterlimit:10;}
	.st7{fill:none;stroke:#000000;stroke-width:2;stroke-linecap:round;stroke-linejoin:round;stroke-dasharray:6.7731,4.8379;}
	
		.st8{fill:none;stroke:#000000;stroke-width:2;stroke-linecap:round;stroke-linejoin:round;stroke-dasharray:19.3518,4.8379,6.7731,4.8379;}
	.st9{fill:none;stroke:#000000;stroke-width:2;stroke-linecap:round;stroke-linejoin:round;stroke-dasharray:6.7869,4.8478;}
	
		.st10{fill:none;stroke:#000000;stroke-width:2;stroke-linecap:round;stroke-linejoin:round;stroke-dasharray:19.3912,4.8478,6.7869,4.8478;}
	.st11{fill:none;stroke:#000000;stroke-width:2;stroke-linecap:round;stroke-linejoin:round;stroke-dasharray:7.2175,5.1553;}
	
		.st12{fill:none;stroke:#000000;stroke-width:2;stroke-linecap:round;stroke-linejoin:round;stroke-dasharray:20.6213,5.1553,7.2175,5.1553;}
	.st13{fill:none;stroke:#000000;stroke-width:2;stroke-linecap:round;stroke-linejoin:round;stroke-dasharray:6.8837,4.9169;}
	
		.st14{fill:none;stroke:#000000;stroke-width:2;stroke-linecap:round;stroke-linejoin:round;stroke-dasharray:19.6676,4.9169,6.8837,4.9169;}
	.st15{fill:none;stroke:#000000;stroke-width:2;stroke-linecap:round;stroke-linejoin:round;stroke-dasharray:6.9517,4.9655;}
	
		.st16{fill:none;stroke:#000000;stroke-width:2;stroke-linecap:round;stroke-linejoin:round;stroke-dasharray:19.862,4.9655,6.9517,4.9655;}
</style>
<g>
	<path class="st0" d="M1.2,1016.9c0.6,1.5,1.1,3,1.8,4.5c2.8,6.3,5.7,12.7,8.5,19c4.2,9.7,12.3,14.2,22,15.9
		c8.1,1.4,16.3,1.5,24.5,2.1c10.3,0.7,20.7,1,31,2.1c11.8,1.3,18,9.1,21.6,19.9c3.1,9.5,6.6,18.8,10.5,28c4.2,9.8,12.4,14.2,22.9,14
		c5.8-0.1,11.7-1.1,17.5-0.8c9.1,0.5,18.4,0.5,26.5,5.8c8.4,5.5,11.7,13.6,12.4,23c0.7,8.8,0.6,17.7,1.1,26.5
		c0.4,7.4,5.2,12,14.5,13.4c6.9,1.1,14,1.5,21,2.1c20.3,1.5,39.8,5.4,58.6,13.8c13.8,6.1,28.6,9.8,42.9,14.8c3.8,1.3,7.7,2.8,10.9,5
		c7.9,5.5,7.8,14.1,7,22.4c-0.9,9-3.1,18-3.7,27c-0.4,6.1,0.7,12.4,1.9,18.5c1.8,8.7,4.1,17.4,6.4,26c2.6,9.9,4.5,11,15.9,8.8
		c9.5-1.9,18.8-5.2,28-8.4c11.1-3.7,22.1-7.8,33-12c16.2-6.1,26.1-17.9,30.5-34.5c2.6-10,5.2-19.9,7.5-30c4.6-20.4-1-38-15.5-53
		c-6.4-6.6-13-13-18.9-20c-14.2-16.8-16.1-35.9-10.1-56.4c1.4-4.7,2.4-9.4,4.1-14c4.2-11.8,0.9-22.6-3.5-33.5
		c-3.7-9.3-8.8-17.9-15.7-24.8c-14.4-14.4-15.6-30.7-8.9-48.6c5.5-14.7,11.3-29.2,16.4-44c3.9-11.3,7.1-23,10.6-34.5
		c1.6-5.2,3.3-10.3,5-15.5c4.8-14.5,1.4-21.7-9-30c-7.3-5.9-15-11.4-19.5-20c-6.8-12.7-6.5-25.8-3.1-39.5c3-12.4,9.1-23.3,14.7-34.4
		c6.6-13.3,13.7-26.3,20.4-39.5c4.7-9.1,11.1-16.7,19.5-22.5c15.7-10.6,27.3-24.3,34-42c4.1-10.7,11-19.5,18.5-28
		c8.5-9.6,16.4-19.8,17.8-33c1-8.7,0.7-17.7,0.6-26.5c-0.1-8.2-0.6-16.3-0.9-24.5c-0.4-10-0.2-20-1.1-30
		c-1.2-12.2,11.6-19.1,21.6-14.9c3.8,1.6,7.6,3.7,10.4,6.5c15.4,15.3,31.2,30.2,44.3,47.8c7.9,10.7,19.9,16.4,32.8,19.6
		c8.1,2,16.3,3.9,24.5,4.9c7.5,0.9,15.4-0.3,20.8-6c8.7-9,18.8-16,29.1-22.9c9.6-6.4,15.2-15.9,20-26c5.1-10.8,10.4-21.5,14.9-32.5
		c2-5,2.9-10.6,3.6-15.9c1.6-13.2-9.7-19.6-19.9-20.4c-9.3-0.7-18.7-0.3-28-1.2c-15.7-1.5-31.5-3.3-46-10.4
		c-5.6-2.7-10.6-6.3-13.9-11.6c-9.5-14.9-23.3-23.6-39.5-29.3c-9.7-3.4-19.1-7.6-27-14.4c-8.8-7.6-13-16.9-9.4-28.5
		c3.1-10.3,6.6-20.5,10.5-30.5c5.4-13.7,8.8-27.8,8.3-42.5c-0.4-12.6-5.4-18.5-18.9-22c-12.4-3.2-24.1,0.2-35.4,4.6
		c-15.2,5.9-30.6,9.9-47,10.6c-9.7,0.4-19.5,0.6-29.1,4.1c-12.6,4.6-19.9,13.7-23.2,25.7c-3,10.6-4,21.7-6.3,32.4
		c-2.8,13.2-7.5,25.6-19.5,33.5c-6.8,4.5-14.2,4.6-20.9,0c-13.2-9-27.2-16.5-41.5-23.5c-6.4-3.1-12.6-6.6-19-9.4
		c-15.4-6.7-27.6-3.1-37.5,9.4c-7.7,9.7-15.3,19.6-25.5,27c-13.6,9.9-29.6,13.5-45.5,17.5c-14.3,3.6-28.1,1.3-42-2.4
		c-11.3-3-22.8-2.6-34.5-0.8c-12.6,2-25.3,3-37.6-0.8c-14.5-4.4-25.3-13.1-30.6-27.9c-2.7-7.5-4.3-15-3.9-23c0.2-4.5,0-9,0-13.5
		c0-12.2-4.1-18.2-15.5-22.5c-13.7-5.1-26.7-11.1-36.5-22.5c-4.3-5-8.9-9.7-13.5-14.5c-1.1-1.2-2.6-2-4-3"/>
	<g>
		<g>
			<path class="st1" d="M1,983.4c2.8,2,5,4.4,7.1,7"/>
			<path class="st2" d="M10.9,994.5c1.7,2.6,3.3,5.3,5,7.9l0.1,0.1"/>
			<path class="st3" d="M17.4,1004.7c6.3,10,12.1,20.2,21.1,28.3c5.6,5,12.2,7.4,19.5,8.5c15,2.3,27.7-3.6,40-11
				c7.5-4.5,15.1-8.4,24.5-8.2c8.6,0.2,17.6,5.6,20.1,17.1c2.1,9.7-1.4,18.7-2.5,28c-0.7,5.9-1.5,12.2-0.3,17.9
				c1.5,7.7,7,13,14.8,15c8.1,2,16.3,3.7,24.5,5c19,3.1,30.4,13.9,34.4,32.6c1.4,6.4,2.2,13,3,19.5c2,15.5,9.2,21,21.6,23.9
				c9.7,2.3,19.6,3.9,29.5,5c11.7,1.3,22.3,5.9,33,10.1c13.4,5.4,27.1,8.7,41.5,10.1c6.7,0.6,13.5,2.1,20,4
				c8.7,2.5,16.3,11.1,13.5,23.9c-2.1,9.7-4.3,19.3-6.5,29c-2.1,9.3-1.7,18.3,2.9,27c4.4,8.2,10.9,12.3,20.1,13
				c16.4,1.2,31.7-2.2,46-10.5c9.8-5.7,15.4-14.6,19.4-24.6c5.3-13.2,8.2-27.1,7.1-41.5c-0.8-9.5-4.9-17.7-11.5-24.4
				c-6.1-6.2-12.6-12.2-19.5-17.5c-10.7-8.3-16.3-19.5-18.7-32.1c-1.9-10-3-20.3-2.9-30.5c0.1-9.8,2-19.7,3.3-29.5
				c1.9-14.8-0.1-28.5-10.5-40c-3.8-4.2-7.7-8.3-11.5-12.5c-8.5-9.5-10.3-20.4-7.1-32.5c2.3-8.6,4.4-17.3,6-26
				c2.3-12.6,2.2-25.4-2.7-37.4c-2.3-5.6-7.1-10.4-11.3-15c-5.3-5.9-8.5-12.9-8.2-20.6c0.3-7,3.5-13.3,7.8-19
				c2.7-3.5,5.1-7.2,7.5-11c4-6.4,5.5-13.6,5.5-21c0-26.1,2.7-51.8,11.6-76.5c2.8-7.7,6.7-15,9.9-22.5c4.7-11,9.5-21.9,14-33
				c4.5-11.3,11.5-20.6,21.1-27.9c11.9-9.1,20.6-20.2,24.6-35c2.8-10.1,5.4-20.5,12.9-28.5c3.3-3.6,6.7-7,10-10.5
				c1.5-1.6,3.1-3.2,4.5-5c10.4-13.2,5-22.9-6.5-29c-2-1-4-1.9-6-3c-12.4-7-12.5-12.3-8.3-23.9c1.9-5.3,3.2-10.4,3.4-16.1
				c0.3-6.9-2.3-12.9-4.6-19c-2.5-6.8-1.4-13,3.6-17.9c11.9-11.9,25.6-20.5,42.9-22.6c13.3-1.6,26.6-2.1,39.5,1.7
				c15.8,4.7,28.3,14.7,38.5,27.4c7.4,9.3,14.3,19,21.6,28.4c5.8,7.4,12.9,12.7,23,11.5c3.1-0.4,6.1-1.4,9-2.5
				c10.2-3.7,20.4-7.6,30.5-11.5c11.6-4.5,18.9-12.8,20.8-25c0.9-5.8-0.7-11.7-4.8-16.5c-6.2-7.2-14.2-11.5-23-14.4
				c-8.1-2.7-16.2-5.4-24.5-6.9c-12.6-2.3-21-9.1-26-20.6c-7.2-16.7-20.8-25.9-37-32.6c-10.4-4.3-21-8.7-29.5-16.5
				c-11.6-10.7-14-23.4-8.4-38.9c4.2-11.6,9.8-22.6,14.3-34.1c2.6-6.7,3.1-13.8,1.2-21c-2.4-8.8-8.1-13.1-17-13.6
				c-9.8-0.5-18.7,3.3-28,5.1c-12.5,2.5-25,5.3-37.5,7.9c-18.8,3.9-29.3,12.6-32.5,32c-1.8,11.3-3,22.7-5.1,34
				c-3.2,17.1-13.2,30-27.5,39.4c-7.2,4.7-14.9,9.1-23,11.9c-14,4.9-21.3,0.2-28.4-9.3c-3.2-4.3-5.9-8.9-8.5-13.5
				c-7.1-12.5-18-20.2-31-25.6c-12.9-5.3-23.2-1.4-32.5,7.6c-5.5,5.3-10.8,10.9-16.5,15.9c-13.2,11.1-27.6,18.3-44.1,21.2
				c-12,2.1-23.9,4.7-36,6.4c-10.8,1.5-21.2-1.7-31.5-4.9c-8.1-2.5-16.4-3.8-25-4.2c-17.6-1-35.3-0.6-52.5-5.7
				c-15.9-4.7-29.6-11.8-39.6-25.5c-4.2-5.8-9.1-11.3-14.5-15.9c-4.7-4.1-10.9-5.9-17.4-5.6c-2.5,0.1-5,0.2-7.5,0.4"/>
			<path class="st1" d="M10.9,373.9c-3.3,0.2-6.7,0.3-10,0.5"/>
		</g>
	</g>
	<path class="st0" d="M1079.5,255.9C1071,261,1062,267,1059,276c-9,27-9,54-16,81c-3,11-7,22-10,33c-1,5-1,9-1,14c-2,23,1,47-10,69
		c-4,7-10,12-17,17c-22,13-45,16-66,30c-10,7-20,19.2-20,30"/>
	<path class="st0" d="M1080,79.4c-16.4-0.5-32.5,1.2-48.5,4.8c-12.4,2.8-25.2,3.1-38,1.4c-8.2-1.1-16.5-0.4-23.5,5.3
		c-5,4.1-7.8,9.7-9.9,15.5c-5.4,14.3-15.4,24.6-27.5,33.6c-8.9,6.6-17.6,13.6-23.7,23.4c-5.9,9.4-8.7,19.6-10.6,30.5
		c-3.2,18.5,2.2,35.4,8.8,52c5.7,14.3,8.9,28.8,7.2,44c-1.3,11.3-7.1,20.7-14.3,29.6c-14.2,17.7-33.6,26.8-54.1,34.3
		c-7.5,2.7-15.2,4.7-23,6.5c-9.6,2.2-19.4,1.9-29-0.5c-19.6-4.9-39-10.5-58.5-15.3c-11.4-2.8-23-4.7-34.5-7.1
		c-14.4-3-26.1-9.7-33.1-23.4c-2.7-5.4-6.7-10.2-10.4-15c-4-5-9.7-6.5-15.9-6.6c-19.7,0-28.9,6.1-35.9,25
		c-5.8,15.7-11.4,31.5-16.5,47.5c-5.2,16.3,1,27.2,15,33.8c9.1,4.3,18.8,7.6,28.5,10.5c11,3.3,19.5,9.9,26.4,18.6
		c9.9,12.5,22.9,18.1,38.5,18.5c11.1,0.3,22.1-0.6,33-2.9c14.9-3.1,29-0.5,40.9,9.4c12,10,15.6,22.7,11.7,38
		c-1.9,7.2-3.5,14.7-3.4,22c0.2,11,5.2,20.2,14.2,27.1c10.1,7.7,20.7,14.3,33.5,15.9c5.8,0.7,11.7,1.2,17.5,0.4
		c9.9-1.3,19.8-3.2,29.5-5.4c12.7-2.8,21-11.6,26.9-22.5c8.5-15.4,22.1-24.3,37.6-30.9c14.8-6.4,29.8-12.1,44.5-18.6
		c19.6-8.6,27.5-24.7,28.1-45.4c0.4-11.9-2.3-23.4-3.9-35c-1.3-9.5,1.5-18.8,6.4-26.9c6.5-10.7,14-21,17.2-33.1
		c2.7-10.2,4.3-20.9,5-31.5c1-15.1,1.3-30.3,1-45.5c-0.2-12.3-1.9-24.7-2.8-37c-1.4-19.3,3.9-32,23.4-43.6c6.9-4.1,14.3-6.5,22-8.4"
		/>
	<path class="st0" d="M1,708.4c5,0.8,10.1,1.4,15,2.5c15.6,3.5,27.4,12.4,35,26.5c7.5,13.9,14.6,28,22.1,42c4.3,8.1,9,16,13.5,24
		c7.3,12.9,7.8,26.2,3,40c-1.7,4.9-3.2,9.9-4.5,15c-4.5,17.4-1.6,33.1,15.4,43.6c10.9,6.7,21.4,13.9,32,20.9
		c13.6,9,22.7,22.1,31.5,35.5c6.5,9.9,13.1,19.9,20.1,29.4c2.5,3.4,6.3,6.1,9.9,8.5c13.6,8.9,26.7,18.2,38,30
		c4.3,4.5,10,7.7,16.4,6.9c8.2-1,12.3-8.8,9.4-18.3c-2.9-9.7-7.2-18.9-10.2-28.6c-2.3-7.3-3.8-14.9-5.1-22.5
		c-2.9-16.9,2.2-32.9,6.4-49c3.9-14.7,9.1-28.9,16-42.5c2.8-5.5,5.9-10.9,8.5-16.5c6-13.1,3.7-26.4,0-39.5
		c-3.3-11.6-7.4-22.9-10.4-34.5c-4.6-18.1,2.2-33.9,18.5-42.9c10-5.5,20.5-10.4,31-15c11.1-5,22.3-9.8,31.4-18.1
		c11.2-10.3,24.6-17.3,37.5-25c7.8-4.6,14-10.7,16.6-19.9c4.3-15.7-0.3-30-12-40.1c-9.7-8.4-21.7-11.2-33.5-14.6
		c-8.1-2.3-16.5-4.7-23.9-8.6c-10.8-5.6-16.9-15.7-21-26.8c-3-8.2-5.3-16.7-8.1-25c-4.1-12-10.7-22.3-21-30
		c-14.4-10.8-30.2-19.3-46.5-27c-12.2-5.8-23.7-4.2-34.5,3.1c-14,9.4-28,18.9-41.5,29c-14.4,10.9-22.6,25.5-23.7,43.9
		c-0.4,6.4-1.6,12.8-3,19c-3.7,16.5-17.2,26.5-35.9,22.6c-3.9-0.8-8-0.9-12-1c-14.8-0.4-29.7-0.8-44.5-1c-12-0.2-24,0-36,0"/>
	<g>
		<g>
			<path class="st1" d="M1.5,693.9c3.3,0.5,6.6,1.1,9.9,1.6"/>
			<path class="st4" d="M16.3,696.3c3.2,0.5,6.3,1,9.5,1.6"/>
			<path class="st5" d="M28.3,698.3c2.1,0.4,4.1,0.8,6.2,1.2C46.9,702,56.2,709,62,720.4c9.2,17.9,18.5,35.8,28,53.5
				c4.5,8.4,9.8,16.3,14.4,24.6c4.8,8.7,7.7,18.2,7.8,28c0.1,7-2.2,14-3.8,21c-1.4,6.2-3.9,12.3-4.8,18.5c-1.9,13,4.4,22.4,14.4,30
				c12.1,9.2,24.3,18.3,35.9,28.1c7,5.9,12.7,13.3,19.2,19.8c5.2,5.2,10.2,10.5,16,14.9c12,9.1,22.7,5.3,27.4-8.4
				c4.1-12.1,8-24.2,11.5-36.5c4.5-15.6,11.2-30.1,18.5-44.5c4-8,8.2-16.1,10.9-24.5c4.2-13.2,2-26.3-1.7-39.5
				c-3.4-12.5-7-25.2-7.8-38c-1.5-22.5,5.8-35.8,29.7-45c13.3-5.1,26.9-9.8,38.9-17.6c5-3.2,9.9-6.8,13.9-11c9.3-9.7,21-15.8,32-23
				c4.1-2.7,7.9-6.1,11-10c8.3-10.4,3.6-24.6-5.4-31c-7.4-5.3-15.8-8-24.6-9.3c-17-2.6-31.9-9.1-44.6-21c-6-5.7-12.5-11.2-19.5-15.4
				c-15-9.1-23.5-22.4-29.1-38.6c-3.1-9.1-7.6-17.6-16.3-23.1c-7.5-4.7-15.8-6.6-23.9-3.3c-14.1,5.7-28.2,11.6-41.4,19.1
				c-12.2,6.9-18.1,18.7-20.3,32.7c-1.7,11.3-3.3,22.7-7.8,33.6c-6.2,15-21.2,25.4-38.1,24.1c-9-0.7-16.9-4.5-25.5-6.1
				c-8.3-1.6-16.6-3.3-25-3.9c-12.8-0.9-25.7-0.9-38.5-1.1"/>
			<path class="st1" d="M10.9,617.5c-3.3,0.1-6.6,0.6-10,0.9"/>
		</g>
	</g>
	<path class="st0" d="M919,550c-0.8,10.1,0.2,19.7,0.5,29.9c0.3,9,1.1,18,2,27c1.3,13.4,4.6,26.2,9.9,38.5c4.6,10.6,6.9,21.9,7,33.5
		c0.3,19.3,3.8,37.8,10.3,56.1c4.9,13.6,8.2,27.9,11.6,41.9c2.5,10,6,19.3,11.5,28c6.5,10.2,12.1,21,15.1,32.9
		c0.6,2.4,1.6,4.7,2.5,7c2.9,7.9,7.1,9.5,14,5c4.3-2.8,8.3-6.1,12.5-8.9c9.8-6.4,19.5-13,29.5-19c11.9-7,17.9-18,20.7-30.6
		c1.8-8,4-16.5,1.2-24.9c-0.9-2.8-2.1-5.5-3.5-8c-4.8-8.7-7.3-17.7-4.4-27.5c0.8-2.7,1.8-5.4,5.5-5.5c3.4-0.1,5.1,1.4,6,4.5
		c1.7,5.7,4,25,9,28.1"/>
	<path class="st6" d="M1,960.4c10.7,5.8,16.5,16,23,25.5c5.3,7.8,10.2,15.8,15.6,23.4c5.7,8.1,14,12.7,23.5,13.7
		c5.1,0.6,10.9-1.3,15.9-3.4c7.3-3,14.1-7.1,21.1-10.8c12.1-6.5,25-10.8,38.5-13.6c10.5-2.1,13.8-8.3,12.1-18.9
		c-4-23.9-18-40.2-38.6-51.4c-9.3-5.1-19-9.4-28.5-14.1c-9.3-4.6-16.3-11.5-20.5-21c-5.4-12.4-4-24.9-0.6-37.5
		c1.9-6.9,3.7-13.9,4.9-21c1-6.1-0.5-12-3.4-17.5c-7.3-14.1-11.2-29.5-16.1-44.5c-4.1-12.7-10.3-24.3-20.9-33
		c-7.6-6.2-16.2-9.6-26-10"/>
	<path class="st6" d="M1,591.4c8.3,0,16.7,0.2,25,0c14.7-0.5,29.3-1.1,44-2c7.9-0.5,15.6-2.3,23.5-2.8c12.5-0.9,17.7-10,20-21.1
		c1.9-9.2,2.8-18.6,6.3-27.6c4.4-11.3,11.4-20.6,18.8-29.9c6.8-8.5,14-16.6,21.5-24.5c10.8-11.5,6.4-19.2-4.6-25.5
		c-15.3-8.9-32.3-12.7-49.5-15.5c-11.6-1.9-23.3-4-35-4.9c-17.3-1.3-34-5.7-51-8c-6.2-0.8-12.6,0.5-19,0.8"/>
	<g>
		<g>
			<path class="st1" d="M1079.5,286.9c-2,2.6-4.3,5.1-6.4,7.7"/>
			<path class="st7" d="M1070.2,298.5c-0.4,0.6-0.8,1.3-1.2,1.9c-1.1,2-2.1,4.1-3,6.3"/>
			<path class="st8" d="M1065.3,309c-3,8.1-4.3,16.7-4.7,25.4c-0.3,7.2-0.3,14.3,0,21.5c0.3,5.9,1.4,11.7,1.9,17.5
				c0.6,7.5-1.6,14.8-4.6,21.4c-5.5,12.2-8.6,24.8-9.3,38.1c-0.5,8.3-1.2,16.7-0.9,25c0.5,18.9-6.3,33.6-22,44.6
				c-9.5,6.7-18.2,14.7-27,22.5c-2.5,2.2-4.3,5.4-6,8.4c-2.2,3.8-1.5,7.3,2.5,9.3c4.9,2.4,10.2,5.1,15.4,5.4
				c9.1,0.5,18.3-0.7,27.5-1.2c7.2-0.5,14.6-1.9,21.5,1.6c5.9,2.9,9,8.2,10.5,14.5c0.8,3.6,1.8,7.1,3.1,10.4"/>
			<path class="st1" d="M1074,575.6c1.4,3,3.1,5.8,5.5,8.3"/>
		</g>
	</g>
	<path class="st6" d="M1,934.4c12.1,3.5,20.4,11.4,26,22.5c5.6,10.9,11,21.8,17.1,32.4c2.1,3.7,5.6,6.7,8.9,9.5
		c8.7,7.5,18.7,7.1,28.4,2.9c12.7-5.5,24.2-13,34.1-22.8c9.7-9.6,8.8-21.1,0.9-31c-7.4-9.4-17.7-14.2-28.9-17.6
		c-9.9-3-19.8-6.1-29.5-9.5c-12.9-4.5-18.9-15.6-24.5-26.9c-4.4-8.9-8.5-18-13.6-26.4c-4.4-7.2-10.6-13-18.9-16.1"/>
	<path class="st0" d="M1,576.4c7.5,0,15,0.5,22.5-0.1c12.7-1,25.4-1.9,38-4.1c9.8-1.7,19.3-5.3,24.9-14.4c2.5-3.9,4.2-8.5,5.5-13
		c3.4-11.8,6.3-23.7,9.6-35.5c6.2-21.6-6.6-37-24-40c-10-1.7-19.9-3.9-30-4.8c-9.6-0.9-18.8,2.1-27.5,6.3c-6.4,3.1-12.7,6.3-19,9.5"
		/>
	<path class="st6" d="M1,676.4c8,0.8,16,1.9,24,2.4c12.4,0.8,24.8,1.9,37-1.9c15.2-4.8,13.6-20.9,6.5-30
		c-6.9-8.8-16.8-12.3-27.5-12.4c-13.3,0-26.7,1.2-40,1.8"/>
	<path class="st6" d="M1,791.4c3.8-0.5,8-0.3,11.4-1.6c12.5-4.9,13.7-17.6,6.4-28.3c-4.1-6.1-10.3-10-17.9-11.1"/>
	<path class="st6" d="M1079.5,410.9c-1.5,2-3,4-4.5,6c-7.2,9.4-8,20.1-4.9,31c1.7,6.1,4.9,11.7,7.4,17.5c0.8,1.8,1.3,3.7,2,5.5"/>
	<path class="st6" d="M1.5,550.9c4-1.2,8.1-2.2,12-3.5c10.8-3.7,12.2-10.6,3.4-17.9c-4.8-4-10.3-7.1-15.4-10.6"/>
	<path class="st6" d="M1079.5,347.9c-3.1-9.7-2.3-19.3,0-29"/>
	<path class="st6" d="M596.5,457.9c-2.7-8.2-9.4-12.3-16.5-16c-8.2-4.3-16.7-8.2-24.4-13.1c-12.4-7.9-20.1-19.5-23.6-33.9
		c-2.9-11.7,0.5-22.3,4.9-33.1c2.7-6.8,6.4-13.2,6.8-20.9c0.5-9.9-4.8-12.4-12.7-12.3c-9.7,0.2-19.4,1.6-29,3.4
		c-5.7,1.1-11.3,3.3-16.5,5.9c-9.3,4.8-12.7,13.6-14,23.4c-1.5,11.5-2.2,23.1-4.2,34.5c-2.6,15-12.3,25.8-22.8,36.1
		c-6,5.8-12.1,11.6-17.4,18c-9.8,11.7-5.7,21.9,6.4,28.9c13.3,7.7,26.9,7.3,40.5,1c9.6-4.4,18.9-9.3,28.6-13.4
		c8.4-3.5,17.3-4.5,26.5-3.2c5.3,0.7,10.7,0.5,16,1.1c11.5,1.3,23,3,34.5,4.4c3.1,0.4,6.5,1.1,9.4,0.4c4.9-1.3,8.3-2.2,7.5-10.8"/>
	<path class="st6" d="M508.5,417.9c-1.5-3.5-3.1-7.4-7.5-7.4c-4.6,0.1-6,4.4-7.4,7.9c-2.2,5.3-1.5,10,1.4,11.5
		c3.5,1.8,9.9,0.1,12.4-4.1c1.2-2,0.8-4.9,1.1-7.4"/>
	<path class="st6" d="M452.5,1235.9c-1.2-4.7-1.6-9.7-3.6-13.9c-6.8-13.7-19.3-19.3-33.4-22.6c-1-0.2-2-0.3-3-0.5
		c-7.6-1.8-12.1,0.3-13.9,7.5c-4.6,18.1-9.5,36.2-12.9,54.5c-3,16.2,7.6,25.9,21.8,25.6c9.6-0.2,18.2-1.8,26-7.6
		c9.6-7.1,13.9-17.2,16.9-28.1c1.3-4.7,1.4-9.6,2.1-14.5"/>
	<path class="st6" d="M434.5,1241.9c-0.5-2-0.7-4.2-1.6-6c-4.2-8.9-14.3-8.1-19-2.6c-5.9,6.9-7.2,15-6.4,23.5
		c0.6,5.6,8.2,9.5,13.4,7c9-4.3,12.9-11.9,13.5-21.5"/>
	<path class="st6" d="M416.5,583.9c-1-5.8-2-11.7-3-17.5c-2.8-15.3-10.7-27.6-22.5-37.5c-3.7-3.1-7.4-6.4-11.5-8.9
		c-9.7-5.8-19.2-5.5-26.9,3c-8.6,9.5-15,20.6-17.9,33c-4.1,17.9-0.4,28.5,19.4,35.3c11.5,4,23.6,6.2,35.4,9.2c4.3,1.1,8.6,2.1,13,3
		c8.3,1.7,13.3-2.4,14-11.5c0.2-2.5,0-5,0-7.5"/>
	<path class="st6" d="M402.5,713.9c-1.3-3.5-1.7-8.3-6-8.8c-5.4-0.6-11.7-1-16.3,1.1c-7.4,3.4-14.1,8.7-20.6,13.8
		c-6.4,5-13.3,8.4-21.1,10.4c-12.6,3.4-25.4,6.1-37,12.5c-9.5,5.3-18.3,11-22.7,21.9c-3.1,7.7-2.3,15-0.4,22.6
		c3.8,14.6,11.2,27.4,19,40c3.1,4.9,6.2,9.9,9,15c2.8,5.1,4.4,10.5,4.1,16.5c-0.1,3.5-0.9,6.4-3.6,8.5c-3.8,2.9-7.6,5.7-11.5,8.5
		c-10.7,7.6-18.6,17.3-22.5,30c-3.3,10.8-7.2,21.5-9.3,32.5c-3.6,18.3-0.1,36,9.5,51.9c4.9,8.1,11.4,15.5,17.9,22.5
		c6.4,6.8,15.8,8.8,24.4,11.5c7.5,2.3,15.3,3.8,23,5.6c8.9,2.1,14.9-1.6,18-6.5c7.7-12.1,12.2-25.1,10.8-39.5
		c-0.5-5.1-2.9-10.4-5.4-15c-5.4-9.7-12.1-18.8-17.2-28.6c-5.6-10.7-8.4-22.5-10.2-34.4c-0.6-4.3-1.7-8.7-1.9-13
		c-0.4-10.2,3.6-17.9,12.9-23.1c9.2-5.2,18.2-10.9,24.1-20.3c5.3-8.5,7.4-18,8.8-27.6c2.1-14.3,3.4-28.7,5.1-43
		c1.5-12.5,4.1-24.5,10.8-35.6c5.3-8.7,8.7-18.4,8.2-28.9"/>
	<path class="st6" d="M397.5,1160.9c-0.3-1.2-0.9-2.3-1-3.5c-0.4-7.5-0.8-15-1-22.5c-0.4-15.8-0.6-31.7-1.1-47.5
		c-0.4-13.1-7.3-23.5-17.5-26.4c-5.4-1.5-11.4-1.7-15.4,4.9c-4.3,7.1-8.3,14.4-12.5,21.5c-6.1,10.3-13.2,19.7-24,25.4
		c-9.5,5-19.5,4.7-28.9,0c-8.7-4.4-15.6-11.1-21.1-19.3c-4.2-6.2-8.8-12.2-14-17.4c-5.7-5.8-13.8-6.3-21.4-7.6
		c-5-0.9-10.1-1.4-15-2.6c-7.7-1.7-11.4-8-15.6-13.9c-3-4.4-6.3-8.7-10-12.5c-8.5-8.7-17.8-6.7-21.8,5c-2.5,7.1-3.8,14.6-1.5,21.9
		c2,6.3,6.8,10.5,12.9,13c5.5,2.3,11.6,3.8,16.4,7.2c11.5,8,17.2,20.2,20.5,33.4c1.9,7.8,2.1,16,3.2,24c2.4,17.1,6.1,26.5,27.5,29.2
		c19.9,2.5,38.8,7.5,57.5,14.3c7.6,2.8,15.4,4,23.5,4c8,0,16-0.1,24,0c7.5,0.2,15,1,22.5,0.9c12.2-0.2,12.7-3.2,13.9-13.9
		c0.6-5.6,0.1-11.3,0.1-17"/>
	<path class="st6" d="M362.5,794.9c-1-5.8-1.8-11.7-3-17.5c-1.6-7.5-4.7-14.3-10.5-19.5c-9.4-8.4-20.4-9.2-32-6
		c-9.3,2.6-17.1,7.7-21.4,16.5c-4.9,10.1-1.9,20,3.5,28.9c7.1,11.7,17.8,19.7,29.4,26.6c1.8,1.1,3.6,2.1,5.5,3
		c13,6.5,21.9,0,25.9-13.5c1.7-5.8,1.8-12,2.6-18"/>
	<path class="st6" d="M358.5,1145.9c-2.3-4.9-3.3-5.5-8-4c-14.2,4.7-28.7,6-43.5,5.5c-5.2-0.2-9.8-2.2-14-5
		c-8.5-5.6-16.7-11.8-25.6-16.9c-10.9-6.2-19.3-0.3-20.1,12.4c-0.9,14.9,8,20.3,20.6,20.5c5.7,0.1,11.3,0.3,17,0
		c9.2-0.5,17.6,1.7,26.1,5.4c12.9,5.5,26.2,5.8,38.9-1.4c6.1-3.4,8.9-8.9,8.5-16"/>
	<path class="st6" d="M825.5,197.9c-1.2-2.7-2.1-5.5-3.6-8c-1.5-2.6-4.1-3.3-6.9-2c-9.7,4.3-15.1,20.6-11.8,29.9c2.3,6.5,9,9,15.2,4
		c5.3-4.3,7.3-10.5,7.1-17.4c-0.1-2,0-4,0-6"/>
	<path class="st6" d="M337.5,442.9c-0.8-3-1.4-6.1-2.5-9c-4.5-11.5-13-13.6-24-8.8c-14.8,6.5-25.3,17.9-32.6,32.3
		c-2.8,5.6-0.9,9.4,5,11c9,2.4,17.7,0.1,26.5-1.6c4-0.8,8.2-1.5,12-3c9.1-3.7,14.6-10.4,15.5-20.4"/>
	<path class="st6" d="M331.5,977.9c-4-15.6-10.3-30.2-19.4-43.6c-5.9-8.7-13.6-11.2-20,0.6c-3.9,7.2-7.1,15-6.5,23.4
		c1.1,16.2,8.8,28.5,26.5,33.3c4,1.1,9.1,1.3,12.9-0.1c5.5-2,7.2-7.4,6.6-13.2"/>
	<path class="st6" d="M306.5,648.9c-6.3-18.3-19-31.2-35.1-40.9c-13.4-8.1-27.3-15.3-37.3-27.7c-5.2-6.4-11.1-11.6-18.6-14.9
		c-19.1-8.6-41.5-3-48,19.5c-2.7,9.3-5,18.7-7.5,28c-4.5,16.4-12.8,30.7-24,43.5c-4.4,5.1-8,11.1-13.2,15.3
		c-6.1,4.9-13.3,8.7-20.4,12.1c-10.6,5.1-15.1,12.9-15.1,24.6c0,14.8,5.3,28,11.2,41c8.3,18.3,17,36.3,25.4,54.5
		c7,15.3,8.1,31.1,4.2,47.5c-1.5,6.1-2.2,12.7-2,19c0.4,9.7,7.6,15.9,14.4,21.4c12,9.5,24.5,18.3,38.3,25.3
		c8.7,4.4,16.1,1.8,19.5-5.2c9.2-18.6,22.9-34.1,34.4-51.1c7.2-10.7,12.2-22.7,11.4-35.9c-0.5-8.1-3.1-16-4.8-24
		c-2.6-12.5-6.5-24.9-7.7-37.5c-1.4-15.5-1.1-31.1,8.1-45c7.9-12,19.6-18.3,32.1-24c7-3.2,14.5-5.9,20.3-10.7
		c10.6-8.6,14.9-20.6,14.2-34.3"/>
	<path class="st6" d="M848.5,177.9c-0.7-3.2-1.3-6.3-2-9.5c-3.3-16-20.6-23.2-36-13.4c-7.2,4.5-11.9,11.7-15.3,19
		c-5.8,12.3-11.3,24.9-14.9,38c-5.1,18.1-0.5,34.4,14.8,46.4c16.8,13.1,37.2,3.5,44.9-10.9c3.9-7.3,5.4-15.3,6.6-23.5
		c2.3-15.1,1.8-30.3,1.9-45.5"/>
	<g>
		<g>
			<path class="st1" d="M228.5,817.9c-1-3.2-2-6.4-3-9.5"/>
			<path class="st9" d="M224,803.7c-0.9-2.9-1.9-5.9-2.8-8.8"/>
			<path class="st10" d="M220.4,792.6c-3.9-12.2-7.7-24.5-11.4-36.8c-2.5-8.6-1.7-17.5-0.9-26.5c1-10.6,1.2-21.4,0-31.9
				c-1.1-9.5-8.8-13.1-18.2-10.5c-10.4,2.9-18.3,9.7-24.8,17.6c-6.7,8.1-14.5,14.5-22.7,20.8c-12,9.3-15.6,21.2-13.2,36.1
				c2.2,13.2,7.2,25.4,11.2,38c4.8,15,8,30.3,10.2,46c1,7.3,2,14.9,7.2,21.1c4.4,5.1,9.6,7.4,16.1,8c20.9,1.9,49.1-16.6,53.4-38.1
				c0.4-1.8,0.6-3.7,0.7-5.6"/>
			<path class="st1" d="M228.2,828.4c0.1-3.3,0.1-6.7,0.3-10"/>
		</g>
	</g>
	<path class="st6" d="M206.5,820.9c-2.8-8.9-7.5-16.3-16.5-20c-10.4-4.3-18.3-0.3-19.3,11.5c-0.9,9.8,1.5,19.1,9.4,26
		c5,4.5,10.8,5.5,17,2.5c5.8-2.8,9.6-7.1,9.5-14c0-1.8,0-3.7,0-5.5"/>
	<g>
		<g>
			<path class="st1" d="M864.5,153.9c-0.5-2.3-0.9-4.7-1.5-7c-0.2-0.9-0.5-1.9-0.8-2.7"/>
			<path class="st11" d="M860,139.5c-1.7-3-4-5.3-6.9-6.8"/>
			<path class="st12" d="M850.8,131.7c-2.5-0.9-5.5-1.2-8.8-1.2c-9.2,0.2-18.6,0.9-27.4,3.1c-10.9,2.7-18.8,9.9-23.5,20.3
				c-8.2,18.1-17,36.1-24.2,54.6c-3.6,9.4-5.1,19.8-6.1,29.9c-0.9,9.2,1.2,18.3,4.8,27c4.4,10.6,9.1,20.9,17.5,29
				c12.8,12.3,27.7,15.6,43.8,5.3c10.6-6.8,21-14.3,28.6-24.8c7.1-9.8,9.6-20.6,7.1-32.5c-0.3-1.3,0-2.7,0-4
				c0-10.8-0.2-21.7,0.1-32.5c0.3-13,0.9-26,1.4-38.9"/>
			<path class="st1" d="M864.1,164.4c0.1-3.3,0.3-6.7,0.4-10"/>
		</g>
	</g>
	<path class="st0" d="M910.5,67.9c-0.5-2.2-0.6-4.6-1.6-6.5C907,57.8,903,57,898,57.8c-17.1,2.6-29,12.5-36.9,27.1
		c-9.3,17.4-23.9,26.5-42.6,30.5c-8.2,1.7-16.4,4.1-23.5,8.9c-8.8,6-13.3,14.9-17,24.5c-6.7,17.4-14.4,34.4-22.8,51.1
		c-6.6,13.1-12.5,26.8-14.5,41.4c-1.6,11.6-0.2,23.3,4.6,34.5c6.6,15.4,14.3,29.8,28.2,39.9c12.1,8.9,25.8,13.5,41,12.5
		c8.8-0.6,16.9-3.9,24-9c13.2-9.5,26-19.5,36-32.5c6.3-8.2,9.4-17.4,7.1-28c-2-9.1-3.3-18.3-5.1-27.5c-2.5-12.8-2.8-25.6-1-38.5
		c1.6-11.5,2.7-23.2,5.2-34.5c3.4-15.2,10.6-29,18.2-42.6c6.4-11.4,9.8-23.8,10.6-36.9c0.2-3.5,0.6-7,1-10.5"/>
	<path class="st6" d="M955.5,438.9c-1.7-6.4-5.7-11.3-9.4-16.6c-7.7-10.8-14.8-21.9-22.1-32.9c-5.5-8.3-12.8-14.1-23-14.9
		c-8.7-0.6-17.4,0.2-26,2.2c-13.3,3.2-24.5,10.1-36,17c-7.6,4.5-15.9,7.8-23.9,11.6c-1.1,0.5-2.4,0.9-3.5,1.5c-5.7,3.1-6.6,6.6-3,12
		c5.3,8,13.1,13,21,18c9.6,6.2,20.2,8.7,31.5,9.5c8.5,0.6,16.4,4,23.4,8.5c10.3,6.6,21.2,10.8,33.6,9.3c12.6-1.4,24.3-5,33.5-14.4
		c2.8-2.9,4.5-6.3,4-10.5"/>
	<path class="st6" d="M1011.5,648.9c-0.7-2.2-1.4-4.3-2-6.5c-1.8-6.9-9.7-11.2-18.5-9.9c-6.4,0.9-11.5,7.5-11.5,14.9
		c-0.2,16.6,2.3,32.9,6.3,48.9c1.4,5.7,4.8,11.2,8.4,15.9c5,6.6,11,5.6,14.7-1.9c1.5-3,2.4-6.6,2.5-9.9c0.1-8.5-0.8-17-0.8-25.5
		s0.6-17,0.9-25.5"/>
	<path class="st6" d="M92.5,961.9c-2.8-10.4-18.1-14.2-27.5-9c-4.7,2.7-7.2,6.7-6.6,12.5s3,10.2,8,13.6c10.6,7,27.4-5.3,26-16.6"/>
	<g>
		<g>
			<path class="st1" d="M1038.5,629.9c-0.7-3-1.3-6-2-9c-0.1-0.3-0.1-0.5-0.2-0.8"/>
			<path class="st13" d="M1034.7,615.5c-1.3-3-3.1-5.5-5.2-7.7"/>
			<path class="st14" d="M1027.6,606.2c-4-3.3-9-5.4-14.7-6.7c-13.5-3.1-24.6-9.5-33.2-20.9c-4.6-6.1-10.4-11.6-17.8-14.6
				c-11.9-4.8-18.8,1.8-20.5,13c-2.8,18.2,1.1,35.7,6.1,53c4.9,16.7,9,33.5,10.1,51c1.1,17.8,5.1,35,12.2,51.6
				c4.1,9.5,6.8,19.6,10.1,29.4c5.3,15.5,16.1,25.6,31.5,30.4c11.2,3.5,14.8-3.4,15.9-11.9c0.4-2.8,0.1-5.7,0.1-8.5
				c-0.2-15.1,2.1-29.9,5.5-44.5c2.9-12.7,4.7-25.4,4.6-38.5c-0.1-15.3,0.3-30.7,0.6-46"/>
			<path class="st1" d="M1038.3,640.4c0.1-3.3,0.1-6.7,0.2-10"/>
		</g>
	</g>
	<path class="st6" d="M1003.5,263.9c-1.5-5.3-3-10.7-4.5-16c-2.1-7.7-7.5-13.2-12.5-19c-6.5-7.6-13.1-15.2-19.4-23
		c-2.1-2.6-3.5-5.9-5.1-8.9c-5.8-11.2-15.5-10.2-23.4-3.9c-8,6.3-10.2,15.5-8.9,24.9c2.7,19.3,7.6,38.1,13.9,56.5
		c3.8,11.1,9.4,21.4,17,30.5c12.2,14.6,28.4,9.6,36.5-5.9c5.7-11,6.6-22.6,6.4-34.5"/>
	<g>
		<g>
			<path class="st1" d="M1050.5,129.9c-0.3-1-0.9-2-1-3c-0.2-2.6-0.9-4.7-2-6.5"/>
			<path class="st15" d="M1043.9,117c-2.5-1.5-5.7-2-9.1-1.5"/>
			<path class="st16" d="M1032.3,116c-8.4,2-16.9,3.5-25.4,5.4c-7,1.6-14.1,3-21,5.1c-3.4,1.1-6.5,3.4-9.5,5.4
				c-13.2,8.6-26.1,17.7-39.6,25.9c-15.2,9.2-23.8,22.6-26.2,39.6c-1.3,9.2-0.5,18.8,2.7,28c5.2,15.4,10.1,30.9,14.5,46.5
				c3.4,12.4,4.9,25.2,3.4,37.9c-1.4,11.8-7.4,21.9-16.3,30c-8.4,7.6-18.6,11.7-29,15.5c-17.9,6.4-35.7,13-53.5,19.5
				c-11.9,4.3-24.2,4.1-36.5,3c-7-0.6-14-1.7-21-2.4c-14-1.4-28-2.7-42-4c-7.7-0.7-15.3-1.3-23-2c-8-0.8-16-1.4-24-2.5
				c-12-1.7-20.3-9.5-28-17.9c-5.5-6-10.7-12.3-16.6-17.9c-5.8-5.5-11.8-5.2-16.8,0c-9,9.4-13.6,21-15.1,33.9
				c-1.3,11.4,7.7,18.7,16,20.4c8,1.6,16.3,2.7,24.5,3c10.9,0.4,19.3,3.9,25.1,13.6c3.3,5.4,7.3,10.7,12,14.9
				c9.2,8.2,20.4,8.6,31.9,6.1c5.6-1.2,11.1-2.8,16.5-4.5c11.9-3.7,23.2-2.9,32.9,5.1c11.6,9.5,23.1,19.2,33.9,29.6
				c9.1,8.8,11,20.3,8.1,32.4c-1.8,7.3-4.9,14.4-3.8,22c0.6,3.9,1.6,8.5,4,11.4c8.9,10.1,20.1,13.8,33.9,11.9
				c15-2.1,27.4-8.2,36.9-19.8c10.3-12.5,24.2-18.8,39-24.1c14.9-5.3,29.5-11.3,44-17.5c7-3,13.8-7,18.6-13.4
				c8.5-11.3,7.8-23.3,2.5-35.5c-2.2-5.1-4.4-10.1-7-15c-4.6-8.7-3.2-16.8,2.1-24.5c7.5-10.8,14.9-21.7,23-32
				c11.8-14.9,17.1-31.8,16.9-50.6c-0.1-7.5,0-15,0-22.5c0-18.6-3.2-36.5-10.9-53.5c-4-8.8-6.7-18.2-1.5-27.4
				c3.6-6.3,8-12.2,12.4-18c6.4-8.3,13.2-16.4,20-24.5c2.6-3.2,4.8-6.5,6.5-10.1"/>
			<path class="st1" d="M1047.9,140c1.2-3.1,2.1-6.3,2.5-9.7"/>
		</g>
	</g>
</g>
</svg>
